<svg xmlns="http://www.w3.org/2000/svg" viewBox="0 0 419.85 115.64"><defs><style>.cls-1{fill:#f47a58;}</style></defs><title>Hippo Video Logo</title><g id="Layer_2" data-name="Layer 2"><g id="Layer_1-2" data-name="Layer 1"><path class="cls-1" d="M77.59,53.18l-.42,0a1.1,1.1,0,0,1-.76-.43,1.09,1.09,0,0,1-.21-.84c1.58-9.08,8.59-15.46,14.2-19.21a9.6,9.6,0,0,0,4.74-7.43,46.49,46.49,0,0,1,2.11-8.07c.31-.94.62-1.9.91-2.86a.54.54,0,0,0-.32-.66c-4.77-1.81-7-4.8-6.67-8.9C91.32,3,93.51.82,95.13.33A7.1,7.1,0,0,1,97.19,0c3.25,0,5.17,2.7,6.72,5.24a.53.53,0,0,0,.46.25.56.56,0,0,0,.33-.11C109.05,2.18,114.39.62,121,.62h.32c6.84,0,12.2,1.93,15.92,5.58a.57.57,0,0,0,.4.17.52.52,0,0,0,.31-.1l1.85-1.38c1.84-1.38,3.74-2.81,5.71-4.06a4.28,4.28,0,0,1,2.28-.7,3.64,3.64,0,0,1,3.36,2.3c.72,1.63,1,4.23.18,5.82A10.66,10.66,0,0,1,144,13.87a.54.54,0,0,0-.43.63l.56,3c.76,4,1.47,7.84,2.26,11.72A3.16,3.16,0,0,0,147.6,31c7.15,4.72,12.71,11.23,15.26,17.87a3.21,3.21,0,0,1,0,1.78,1.11,1.11,0,0,1-1.08.88,1.08,1.08,0,0,1-.5-.12,3.47,3.47,0,0,1-1.52-1.19l-1-1.73c-2.12-3.74-3.29-5.79-5.64-8.17a2.49,2.49,0,0,1-.28-.34c-4.76-6.85-12.53-10.9-23.78-12.38A70,70,0,0,0,120,27a51.25,51.25,0,0,0-23.85,5.56C87.06,37.27,81.76,43,80.37,49.49c0,.17-.07.35-.1.53C80,51.43,79.67,53.18,77.59,53.18Zm42.61-29.1a67.28,67.28,0,0,1,22,3.81.56.56,0,0,0,.18,0,.54.54,0,0,0,.41-.19.53.53,0,0,0,.12-.43c-1.2-7.78-2.34-15.13-9.52-19.45a25.07,25.07,0,0,0-13-3.86,22.47,22.47,0,0,0-11.6,3.31c-6,3.59-9.1,9.58-9.92,19.43a.51.51,0,0,0,.14.4.55.55,0,0,0,.4.18l.16,0A70.38,70.38,0,0,1,120.21,24.08ZM96,3.83a.54.54,0,0,0-.53.42l-.09.39c-.17.75-.35,1.52-.09,1.9a28.35,28.35,0,0,0,3.14,3.72l.83.88a.53.53,0,0,0,.4.17h0a.54.54,0,0,0,.45-.23c1.11-1.63,1.5-2.8,1.29-3.77s-1.15-1.95-3.08-3.1a4.31,4.31,0,0,0-2-.37H96l0-.28Zm50.76-.18c-2.18,0-5.76,3.29-6,5.5a3.34,3.34,0,0,0,.44,1.58l0,.1a.54.54,0,0,0,.5.32h.1c2.58-.44,6.65-4.06,6.51-5.78,0-.6-1-1.68-1.53-1.7Z"/><path class="cls-1" d="M132.17,20.51c-1.57.81-2.5,1.59-3.49,1.67-.49,0-1.68-1.56-1.53-1.8a4.09,4.09,0,0,1,2.28-2C130.06,18.31,130.89,19.47,132.17,20.51Z"/><path class="cls-1" d="M71.73,76.5q.5,2.11,1,4.37a35,35,0,0,1,.6,4.42,17.19,17.19,0,0,1-.2,4.17A9.1,9.1,0,0,1,71.73,93a3,3,0,0,1-2.66,2,6.35,6.35,0,0,1-3.31-1,14.4,14.4,0,0,1-3.06-2.51,10.43,10.43,0,0,1-1.91-2.61,17.65,17.65,0,0,1-2.36-4.62,29.7,29.7,0,0,1-1.25-5.17,41.09,41.09,0,0,1-.45-5.42q-.05-2.76-.05-5.27a54.64,54.64,0,0,0-.3-5.62q-.3-2.91-.4-5.32a16,16,0,0,1,.25-4q.35-1.6,1.76-1.61h2.81a4.91,4.91,0,0,1,3.26,1.05,9.49,9.49,0,0,1,2.26,3.06,28.31,28.31,0,0,1,2.36,5.17,48.92,48.92,0,0,1,1.41,5.12q.55,2.56.85,5.17T71.73,76.5Z"/><path class="cls-1" d="M117.51,60.84A25.32,25.32,0,0,1,119,67.77a26.81,26.81,0,0,1-.45,7.13,26.31,26.31,0,0,1-2.36,6.78,22.94,22.94,0,0,1-4.27,5.87,12.26,12.26,0,0,1-4.27,3.06,11.54,11.54,0,0,1-4.27.85,12.8,12.8,0,0,1-4.17-.7A38.72,38.72,0,0,1,95,89.05v7.37a19.15,19.15,0,0,0,.35,3.24q.35,2.81.5,5.57a22.15,22.15,0,0,1-.3,5.22,6.74,6.74,0,0,1-2.16,4,3.88,3.88,0,0,1-2.54,1.2,6.74,6.74,0,0,1-2.89-.45,9.87,9.87,0,0,1-2.64-1.51,6,6,0,0,1-1.69-2,19.87,19.87,0,0,1-2.24-5.37,29.74,29.74,0,0,1-.8-5.42,26.37,26.37,0,0,1,0-4q.15-2.91.15-6.12V69.18q0-1.6-.15-3.81a34.54,34.54,0,0,1,0-4.57,20.69,20.69,0,0,1,.8-4.57,8.86,8.86,0,0,1,2.26-3.81A15.29,15.29,0,0,1,89,47.24a17.34,17.34,0,0,1,8.78-2A15.8,15.8,0,0,1,104,46.54a23,23,0,0,1,5.62,3.36,25.43,25.43,0,0,1,4.67,5A26.85,26.85,0,0,1,117.51,60.84ZM106.06,65a7.48,7.48,0,0,0,.2-3,6.69,6.69,0,0,0-1-2.66,5.92,5.92,0,0,0-2-2,5.46,5.46,0,0,0-2.86-.75,8,8,0,0,0-5.27,1.71,11,11,0,0,0-3.06,3.91,12.65,12.65,0,0,1,1.15,5q.15,3,.15,6.22v4.22a29.52,29.52,0,0,0,3.36-.15A3.6,3.6,0,0,0,99,76.3a32.51,32.51,0,0,0,4.12-4.82A20.17,20.17,0,0,0,106.06,65Z"/><path class="cls-1" d="M161.42,60.84a25.3,25.3,0,0,1,1.46,6.93,26.81,26.81,0,0,1-.45,7.13,26.3,26.3,0,0,1-2.36,6.78,23,23,0,0,1-4.27,5.87,12.26,12.26,0,0,1-4.27,3.06,11.54,11.54,0,0,1-4.27.85,12.79,12.79,0,0,1-4.17-.7,38.73,38.73,0,0,1-4.17-1.71v7.37a19.11,19.11,0,0,0,.35,3.24q.35,2.81.5,5.57a22.15,22.15,0,0,1-.3,5.22,6.74,6.74,0,0,1-2.16,4,3.87,3.87,0,0,1-2.54,1.2,6.73,6.73,0,0,1-2.89-.45,9.86,9.86,0,0,1-2.64-1.51,6,6,0,0,1-1.69-2,19.89,19.89,0,0,1-2.24-5.37,29.78,29.78,0,0,1-.8-5.42,26.52,26.52,0,0,1,0-4q.15-2.91.15-6.12V69.18q0-1.6-.15-3.81a34.73,34.73,0,0,1,0-4.57,20.73,20.73,0,0,1,.8-4.57,8.86,8.86,0,0,1,2.26-3.81A15.29,15.29,0,0,1,133,47.24a17.33,17.33,0,0,1,8.78-2,15.8,15.8,0,0,1,6.12,1.25,23,23,0,0,1,5.62,3.36,25.45,25.45,0,0,1,4.67,5A26.82,26.82,0,0,1,161.42,60.84ZM150,65a7.48,7.48,0,0,0,.2-3,6.7,6.7,0,0,0-1-2.66,5.92,5.92,0,0,0-2-2,5.46,5.46,0,0,0-2.86-.75,8,8,0,0,0-5.27,1.71A11,11,0,0,0,136,62.25a12.65,12.65,0,0,1,1.15,5q.15,3,.15,6.22v4.22a29.53,29.53,0,0,0,3.36-.15A3.6,3.6,0,0,0,143,76.3a32.52,32.52,0,0,0,4.12-4.82A20.16,20.16,0,0,0,150,65Z"/><path class="cls-1" d="M209.51,73.19A15.69,15.69,0,0,1,209,80a17.36,17.36,0,0,1-3.26,6.22,18.36,18.36,0,0,1-5.47,4.52,14.62,14.62,0,0,1-7.13,1.76,16.42,16.42,0,0,1-7.63-.8,21.93,21.93,0,0,1-12-10.29,23.52,23.52,0,0,1-2.66-8.18,30.14,30.14,0,0,1-.15-7.23,22.11,22.11,0,0,1,1.86-7.23,14.4,14.4,0,0,1,4.37-5.52A11.57,11.57,0,0,1,184.21,51q1.2,0,2.21-.05a18.83,18.83,0,0,1,2.31.05,18.21,18.21,0,0,1,7.58,2.06,23.39,23.39,0,0,1,6.32,4.82,24.81,24.81,0,0,1,4.52,6.93A30.94,30.94,0,0,1,209.51,73.19Zm-20.78,5.92A10.23,10.23,0,0,0,193.29,75a9.37,9.37,0,0,0,1.1-5A14.32,14.32,0,0,0,193,64.71a30.24,30.24,0,0,0-2.86-4.87,11.18,11.18,0,0,0-2.76,2.71A15.36,15.36,0,0,0,185.51,66a17.92,17.92,0,0,0-1,3.71,22.71,22.71,0,0,0-.3,3.51v5.92a1.67,1.67,0,0,1,.65.15,8,8,0,0,0,.85.3,3.36,3.36,0,0,0,1.2.1A5.57,5.57,0,0,0,188.73,79.11Z"/><path class="cls-1" d="M12,97a7.13,7.13,0,0,1-2.18-.37A13.74,13.74,0,0,1,7,95.39,9.19,9.19,0,0,1,5.26,94.2a.56.56,0,0,1-.1-.14,36.22,36.22,0,0,1-3-8.42A69.87,69.87,0,0,1,.68,76.43C.4,73.31.23,70.17.17,67.08s-.09-6-.09-8.73c0-3.07,0-6,0-8.58s0-5.3,0-8.42C0,38.8,0,36,.13,33.12a65.06,65.06,0,0,1,.9-9l0-.07a1.85,1.85,0,0,1,1.82-1.46H3a5.5,5.5,0,0,1,2.42.75,11.15,11.15,0,0,1,2.28,1.7,7.17,7.17,0,0,1,1.47,1.81.56.56,0,0,1,0,.13A76.94,76.94,0,0,1,11,40.77c.16,4.24.25,8.55.25,12.83,1.3-.37,2.74-.72,4.3-1,1.83-.36,3.57-.78,5.19-1.22a44.7,44.7,0,0,1,7.42-1.25c2.27-.18,4.64-.28,7.05-.3V39.22c0-.95,0-2.14-.13-3.54s-.1-2.94,0-4.48a25.39,25.39,0,0,1,.57-4.52,9.55,9.55,0,0,1,1.68-3.79l0-.06a1.68,1.68,0,0,1,1.23-.41,4.33,4.33,0,0,1,.56,0,7.87,7.87,0,0,1,2.11.59,14,14,0,0,1,1.86,1,2.25,2.25,0,0,1,1.14,1.27,26.39,26.39,0,0,1,1,4.8c.17,1.5.27,3,.3,4.47s0,2.93-.09,4.38-.13,2.92-.13,4.43c0,3,0,6,.13,9.08s.21,6.13.38,9.17A60.42,60.42,0,0,0,47,70.31a82.59,82.59,0,0,1,1.33,9,30.17,30.17,0,0,0,.58,4,39,39,0,0,1,.65,3.93,21.89,21.89,0,0,1,.09,3.88,11.39,11.39,0,0,1-1,3.93,2.65,2.65,0,0,1-2.09,1.51,5.89,5.89,0,0,1-.86.06,6.65,6.65,0,0,1-1.76-.25,8.94,8.94,0,0,1-2.45-1.09,3.57,3.57,0,0,1-1.54-1.64,19.67,19.67,0,0,1-1.26-4.12c-.37-1.73-.7-3.69-1-5.82s-.53-4.38-.73-6.74-.37-4.68-.51-6.94-.23-4.43-.26-6.45c0-1.62,0-3.09,0-4.39a22.67,22.67,0,0,1-4,.81,24.08,24.08,0,0,0-4.4.91,63.33,63.33,0,0,1-8,1.51,65.32,65.32,0,0,1-7.63.55c0,2.84.11,5.52.3,8,.2,2.63.55,5.44,1.06,8.36a87.39,87.39,0,0,1,1.37,15.4.56.56,0,0,1,0,.15A2.55,2.55,0,0,1,12.75,97,5.48,5.48,0,0,1,12,97Z"/><path class="cls-1" d="M109.2,20.51c1.57.81,2.5,1.59,3.49,1.67.49,0,1.68-1.56,1.53-1.8a4.09,4.09,0,0,0-2.28-2C111.31,18.31,110.48,19.47,109.2,20.51Z"/><path class="cls-1" d="M251.44,95.53a6.73,6.73,0,0,1-1.63-.21,6.42,6.42,0,0,1-3-1.85,6,6,0,0,1-1.6-3.12c-1.13-4.65-4-13.78-8.68-27.19-.24-.79-.53-1.64-.84-2.52C234.06,56,232,50.08,229.52,43.08c-2.22-6.17-3.5-9.75-3.8-10.67a6,6,0,0,1,.27-4.87,6.06,6.06,0,0,1,3.69-3.21,6.71,6.71,0,0,1,2.11-.36,6.32,6.32,0,0,1,2.8.68,5.89,5.89,0,0,1,3.16,3.64l3.73,10.53c2.52,7,4.62,12.89,6.22,17.64.32.84.63,1.67.94,2.53.49,1.53,1,3,1.49,4.37l1.06,2.89.85-3c.36-1.27.76-2.54,1.19-3.75,4-13.21,7.63-23.74,10.76-31.36a6.2,6.2,0,0,1,3.5-3.4,6.44,6.44,0,0,1,2.44-.51,6.47,6.47,0,0,1,5.88,4,5.84,5.84,0,0,1,0,4.83c-3,7.25-6.46,17.38-10.35,30.12-3.09,10.14-5.72,19.37-7.82,27.46a6.13,6.13,0,0,1-2.94,3.95A6.19,6.19,0,0,1,251.44,95.53Z"/><path class="cls-1" d="M290.72,70.33q-.15,13-.54,19.47a5.55,5.55,0,0,1-2,4.14,6,6,0,0,1-4.41,1.57,5.72,5.72,0,0,1-4.18-2,5.83,5.83,0,0,1-1.53-4.37q.31-6.21.46-18.94a6.44,6.44,0,0,1,1-3.18,5.87,5.87,0,0,1,2.41-2.18,5.77,5.77,0,0,1-2.61-2.22,4.59,4.59,0,0,1-.69-1.3,5.55,5.55,0,0,1-.23-1,2.84,2.84,0,0,1-.08-.69v-.54a7.5,7.5,0,0,1,0-1.53,3.63,3.63,0,0,1,.08-.84V56.3a5.57,5.57,0,0,1,.23-1,6.45,6.45,0,0,1,.92-1.76,6.08,6.08,0,0,1,7.74-1.76,5.59,5.59,0,0,1,2.22,2,5,5,0,0,1,.61,1.15l.31.92a26,26,0,0,1,.23,3.14,5.91,5.91,0,0,1-1.46,4,6,6,0,0,1-1.3,1.23,3,3,0,0,1-.77.46,6.2,6.2,0,0,1,2.68,2.3A5.63,5.63,0,0,1,290.72,70.33Z"/><path class="cls-1" d="M356.54,82a4.15,4.15,0,0,0,2.76,2.84,7.18,7.18,0,0,0,6.44-.84,6,6,0,0,1,8.43,1.46,5.93,5.93,0,0,1,1,4.56A5.84,5.84,0,0,1,372.72,94c-5.57,3.88-11.12,4.08-16.64,2.6a15.08,15.08,0,0,1-7.13-4.14,17.74,17.74,0,0,1-4.29-7.36,40.53,40.53,0,0,1-1-20.39,20.15,20.15,0,0,1,4.6-9.35,14.48,14.48,0,0,1,10.35-4.83,17.13,17.13,0,0,1,13.26,5.21,16.91,16.91,0,0,1,5.67,12.11,12.89,12.89,0,0,1-2.07,7.44c-1.43,2.2-3.48,2.91-6.13,4.14A26.25,26.25,0,0,1,356.54,82Zm-1.38-12.42a26.28,26.28,0,0,0,5.06.38,10.66,10.66,0,0,0,4.14-.77,1.75,1.75,0,0,0,.69-.38.5.5,0,0,0,.23-.23.8.8,0,0,0,.08-.46,5.57,5.57,0,0,0-2-3.68,5.25,5.25,0,0,0-4.14-1.76,2.57,2.57,0,0,0-2,.84,9,9,0,0,0-1.69,3.83Q355.31,68.42,355.16,69.57Z"/><path class="cls-1" d="M407.08,50.6a4.87,4.87,0,0,1,2.21.66q6.53,3.45,9.13,11.46a30.62,30.62,0,0,1,1.05,14.22A26.9,26.9,0,0,1,414,90a16.74,16.74,0,0,1-13.43,6.76,12.31,12.31,0,0,1-8.36-3.29A19.09,19.09,0,0,1,387.54,87a35.12,35.12,0,0,1-3-16.14q.46-10,5.66-15.79a14.74,14.74,0,0,1,7.46-4.63A18.23,18.23,0,0,1,407.08,50.6Zm-2.85,11.78a7.29,7.29,0,0,0-3.25-.26,3.51,3.51,0,0,0-1.76,1.07q-2.17,2.49-2.46,8.13a22.09,22.09,0,0,0,1.89,10.53,6.83,6.83,0,0,0,1.67,2.47.49.49,0,0,0,.25.21,5.16,5.16,0,0,0,4-2.18,14.77,14.77,0,0,0,2.92-7.25,18.84,18.84,0,0,0-.57-8.57A8.3,8.3,0,0,0,404.23,62.39Z"/><path class="cls-1" d="M335.12,94.9a5.64,5.64,0,0,1-4.34,1.72,3.89,3.89,0,0,1-3.63-1.76A8.66,8.66,0,0,1,325.94,91a13.14,13.14,0,0,1-5,4.14c-2,.94-2,1.41-4.25,1.41a16.51,16.51,0,0,1-7.89-1.88,19,19,0,0,1-6-5,23,23,0,0,1-3.79-7,24.59,24.59,0,0,1-1.33-8A24.07,24.07,0,0,1,299,66.65a22.23,22.23,0,0,1,3.87-6.88A18.27,18.27,0,0,1,309,55,18.08,18.08,0,0,1,317,53.24c3.86,0,5,1.33,7.65,4l-2.12-17.44A5.79,5.79,0,0,1,328.36,34h.44a5.8,5.8,0,0,1,5.8,5.8l2.12,50.64A6.27,6.27,0,0,1,335.12,94.9ZM324.57,71.41a12,12,0,0,0-1.41-3.71c-.65-1.09-1.82-1.68-2.66-2.7s-.78-.94-2-1.06a6.39,6.39,0,0,0-3.91,1,8.8,8.8,0,0,0-2.74,2.54A11.47,11.47,0,0,0,310.25,71a14.42,14.42,0,0,0-.55,3.91,16.2,16.2,0,0,0,.51,4,11.26,11.26,0,0,0,1.56,3.56,8.77,8.77,0,0,0,2.7,2.58,7.27,7.27,0,0,0,3.91,1,4.44,4.44,0,0,0,2.42-.76c1.2-.42,1.36-1.52,2.06-2.48a10.63,10.63,0,0,0,1.6-3.32,13.9,13.9,0,0,0,.55-3.91A20.58,20.58,0,0,0,324.57,71.41Z"/></g></g></svg>